<?xml version="1.0" encoding="UTF-8" standalone="no"?>
<!DOCTYPE svg PUBLIC "-//W3C//DTD SVG 1.1//EN"
 "http://www.w3.org/Graphics/SVG/1.1/DTD/svg11.dtd">
<!-- Generated by graphviz version 3.0.0 (20220226.1711)
 -->
<!-- Title: dependencies Pages: 1 -->
<svg width="1717pt" height="247pt"
 viewBox="0.00 0.00 1717.00 246.80" xmlns="http://www.w3.org/2000/svg" xmlns:xlink="http://www.w3.org/1999/xlink">
<g id="graph0" class="graph" transform="scale(1 1) rotate(0) translate(4 242.8)">
<title>dependencies</title>
<polygon fill="white" stroke="transparent" points="-4,4 -4,-242.8 1713,-242.8 1713,4 -4,4"/>
<text text-anchor="middle" x="854.5" y="-8.2" font-family="sans-serif" font-size="14.00">dependencies</text>
<g id="clust1" class="cluster">
<title>cluster_AppModule</title>
<polygon fill="none" stroke="black" stroke-dasharray="1,5" points="8,-32.8 8,-230.8 1701,-230.8 1701,-32.8 8,-32.8"/>
</g>
<g id="clust13" class="cluster">
<title>cluster_AppModule_imports</title>
<polygon fill="none" stroke="black" points="1549,-40.8 1549,-92.8 1693,-92.8 1693,-40.8 1549,-40.8"/>
</g>
<g id="clust15" class="cluster">
<title>cluster_AppModule_bootstrap</title>
<polygon fill="none" stroke="black" points="820,-170.8 820,-222.8 944,-222.8 944,-170.8 820,-170.8"/>
</g>
<g id="clust2" class="cluster">
<title>cluster_AppModule_declarations</title>
<polygon fill="none" stroke="black" points="16,-40.8 16,-92.8 1541,-92.8 1541,-40.8 16,-40.8"/>
</g>
<!-- AppComponent -->
<g id="node1" class="node">
<title>AppComponent</title>
<polygon fill="#ffffb3" stroke="black" points="1532.94,-84.8 1427.06,-84.8 1427.06,-48.8 1532.94,-48.8 1532.94,-84.8"/>
<text text-anchor="middle" x="1480" y="-62.6" font-family="Times,serif" font-size="14.00">AppComponent</text>
</g>
<!-- AppModule -->
<g id="node11" class="node">
<title>AppModule</title>
<polygon fill="#8dd3c7" stroke="black" points="923.66,-149.8 920.66,-153.8 899.66,-153.8 896.66,-149.8 840.34,-149.8 840.34,-113.8 923.66,-113.8 923.66,-149.8"/>
<text text-anchor="middle" x="882" y="-127.6" font-family="Times,serif" font-size="14.00">AppModule</text>
</g>
<!-- AppComponent&#45;&gt;AppModule -->
<g id="edge1" class="edge">
<title>AppComponent&#45;&gt;AppModule</title>
<path fill="none" stroke="black" d="M1480,-85.08C1480,-106.12 1480,-137.8 1480,-137.8 1480,-137.8 934.05,-137.8 934.05,-137.8"/>
<polygon fill="black" stroke="black" points="934.05,-134.3 924.05,-137.8 934.05,-141.3 934.05,-134.3"/>
</g>
<!-- BookshelfComponent -->
<g id="node2" class="node">
<title>BookshelfComponent</title>
<polygon fill="#ffffb3" stroke="black" points="1409.38,-84.8 1270.62,-84.8 1270.62,-48.8 1409.38,-48.8 1409.38,-84.8"/>
<text text-anchor="middle" x="1340" y="-62.6" font-family="Times,serif" font-size="14.00">BookshelfComponent</text>
</g>
<!-- BookshelfComponent&#45;&gt;AppModule -->
<g id="edge2" class="edge">
<title>BookshelfComponent&#45;&gt;AppModule</title>
<path fill="none" stroke="black" d="M1340,-84.91C1340,-104.14 1340,-131.8 1340,-131.8 1340,-131.8 933.86,-131.8 933.86,-131.8"/>
<polygon fill="black" stroke="black" points="933.86,-128.3 923.86,-131.8 933.86,-135.3 933.86,-128.3"/>
</g>
<!-- HobbiesComponent -->
<g id="node3" class="node">
<title>HobbiesComponent</title>
<polygon fill="#ffffb3" stroke="black" points="1252.99,-84.8 1125.01,-84.8 1125.01,-48.8 1252.99,-48.8 1252.99,-84.8"/>
<text text-anchor="middle" x="1189" y="-62.6" font-family="Times,serif" font-size="14.00">HobbiesComponent</text>
</g>
<!-- HobbiesComponent&#45;&gt;AppModule -->
<g id="edge3" class="edge">
<title>HobbiesComponent&#45;&gt;AppModule</title>
<path fill="none" stroke="black" d="M1189,-84.82C1189,-102.17 1189,-125.8 1189,-125.8 1189,-125.8 933.72,-125.8 933.72,-125.8"/>
<polygon fill="black" stroke="black" points="933.72,-122.3 923.72,-125.8 933.72,-129.3 933.72,-122.3"/>
</g>
<!-- HomeComponent -->
<g id="node4" class="node">
<title>HomeComponent</title>
<polygon fill="#ffffb3" stroke="black" points="1106.55,-84.8 991.45,-84.8 991.45,-48.8 1106.55,-48.8 1106.55,-84.8"/>
<text text-anchor="middle" x="1049" y="-62.6" font-family="Times,serif" font-size="14.00">HomeComponent</text>
</g>
<!-- HomeComponent&#45;&gt;AppModule -->
<g id="edge4" class="edge">
<title>HomeComponent&#45;&gt;AppModule</title>
<path fill="none" stroke="black" d="M1049,-85.04C1049,-100.37 1049,-119.8 1049,-119.8 1049,-119.8 933.71,-119.8 933.71,-119.8"/>
<polygon fill="black" stroke="black" points="933.71,-116.3 923.71,-119.8 933.71,-123.3 933.71,-116.3"/>
</g>
<!-- LazyImageDirectiveDirective -->
<g id="node5" class="node">
<title>LazyImageDirectiveDirective</title>
<polygon fill="#ffffb3" stroke="black" points="973.63,-84.8 790.37,-84.8 790.37,-48.8 973.63,-48.8 973.63,-84.8"/>
<text text-anchor="middle" x="882" y="-62.6" font-family="Times,serif" font-size="14.00">LazyImageDirectiveDirective</text>
</g>
<!-- LazyImageDirectiveDirective&#45;&gt;AppModule -->
<g id="edge5" class="edge">
<title>LazyImageDirectiveDirective&#45;&gt;AppModule</title>
<path fill="none" stroke="black" d="M882,-84.91C882,-84.91 882,-103.79 882,-103.79"/>
<polygon fill="black" stroke="black" points="878.5,-103.79 882,-113.79 885.5,-103.79 878.5,-103.79"/>
</g>
<!-- NavbarComponent -->
<g id="node6" class="node">
<title>NavbarComponent</title>
<polygon fill="#ffffb3" stroke="black" points="772.03,-84.8 649.97,-84.8 649.97,-48.8 772.03,-48.8 772.03,-84.8"/>
<text text-anchor="middle" x="711" y="-62.6" font-family="Times,serif" font-size="14.00">NavbarComponent</text>
</g>
<!-- NavbarComponent&#45;&gt;AppModule -->
<g id="edge6" class="edge">
<title>NavbarComponent&#45;&gt;AppModule</title>
<path fill="none" stroke="black" d="M711,-85.04C711,-100.37 711,-119.8 711,-119.8 711,-119.8 830.17,-119.8 830.17,-119.8"/>
<polygon fill="black" stroke="black" points="830.17,-123.3 840.17,-119.8 830.17,-116.3 830.17,-123.3"/>
</g>
<!-- PageNotFoundComponent -->
<g id="node7" class="node">
<title>PageNotFoundComponent</title>
<polygon fill="#ffffb3" stroke="black" points="631.83,-84.8 466.17,-84.8 466.17,-48.8 631.83,-48.8 631.83,-84.8"/>
<text text-anchor="middle" x="549" y="-62.6" font-family="Times,serif" font-size="14.00">PageNotFoundComponent</text>
</g>
<!-- PageNotFoundComponent&#45;&gt;AppModule -->
<g id="edge7" class="edge">
<title>PageNotFoundComponent&#45;&gt;AppModule</title>
<path fill="none" stroke="black" d="M549,-84.82C549,-102.17 549,-125.8 549,-125.8 549,-125.8 830.16,-125.8 830.16,-125.8"/>
<polygon fill="black" stroke="black" points="830.16,-129.3 840.16,-125.8 830.16,-122.3 830.16,-129.3"/>
</g>
<!-- PortfolioComponent -->
<g id="node8" class="node">
<title>PortfolioComponent</title>
<polygon fill="#ffffb3" stroke="black" points="448.61,-84.8 317.39,-84.8 317.39,-48.8 448.61,-48.8 448.61,-84.8"/>
<text text-anchor="middle" x="383" y="-62.6" font-family="Times,serif" font-size="14.00">PortfolioComponent</text>
</g>
<!-- PortfolioComponent&#45;&gt;AppModule -->
<g id="edge8" class="edge">
<title>PortfolioComponent&#45;&gt;AppModule</title>
<path fill="none" stroke="black" d="M383,-84.91C383,-104.14 383,-131.8 383,-131.8 383,-131.8 830.31,-131.8 830.31,-131.8"/>
<polygon fill="black" stroke="black" points="830.31,-135.3 840.31,-131.8 830.31,-128.3 830.31,-135.3"/>
</g>
<!-- SitemapComponent -->
<g id="node9" class="node">
<title>SitemapComponent</title>
<polygon fill="#ffffb3" stroke="black" points="299.71,-84.8 172.29,-84.8 172.29,-48.8 299.71,-48.8 299.71,-84.8"/>
<text text-anchor="middle" x="236" y="-62.6" font-family="Times,serif" font-size="14.00">SitemapComponent</text>
</g>
<!-- SitemapComponent&#45;&gt;AppModule -->
<g id="edge9" class="edge">
<title>SitemapComponent&#45;&gt;AppModule</title>
<path fill="none" stroke="black" d="M236,-85.08C236,-106.12 236,-137.8 236,-137.8 236,-137.8 830.11,-137.8 830.11,-137.8"/>
<polygon fill="black" stroke="black" points="830.11,-141.3 840.11,-137.8 830.11,-134.3 830.11,-141.3"/>
</g>
<!-- WritingsComponent -->
<g id="node10" class="node">
<title>WritingsComponent</title>
<polygon fill="#ffffb3" stroke="black" points="154.32,-84.8 23.68,-84.8 23.68,-48.8 154.32,-48.8 154.32,-84.8"/>
<text text-anchor="middle" x="89" y="-62.6" font-family="Times,serif" font-size="14.00">WritingsComponent</text>
</g>
<!-- WritingsComponent&#45;&gt;AppModule -->
<g id="edge10" class="edge">
<title>WritingsComponent&#45;&gt;AppModule</title>
<path fill="none" stroke="black" d="M89,-85.05C89,-107.82 89,-143.8 89,-143.8 89,-143.8 830.2,-143.8 830.2,-143.8"/>
<polygon fill="black" stroke="black" points="830.2,-147.3 840.2,-143.8 830.2,-140.3 830.2,-147.3"/>
</g>
<!-- AppComponent  -->
<g id="node13" class="node">
<title>AppComponent </title>
<polygon fill="#80b1d3" stroke="black" points="936.44,-214.8 827.56,-214.8 827.56,-178.8 936.44,-178.8 936.44,-214.8"/>
<text text-anchor="middle" x="882" y="-192.6" font-family="Times,serif" font-size="14.00">AppComponent </text>
</g>
<!-- AppModule&#45;&gt;AppComponent  -->
<g id="edge12" class="edge">
<title>AppModule&#45;&gt;AppComponent </title>
<path fill="none" stroke="black" stroke-dasharray="1,5" d="M882,-149.91C882,-149.91 882,-168.79 882,-168.79"/>
<polygon fill="black" stroke="black" points="878.5,-168.79 882,-178.79 885.5,-168.79 878.5,-168.79"/>
</g>
<!-- AppRoutingModule -->
<g id="node12" class="node">
<title>AppRoutingModule</title>
<polygon fill="#8dd3c7" stroke="black" points="1685.28,-84.8 1682.28,-88.8 1661.28,-88.8 1658.28,-84.8 1556.72,-84.8 1556.72,-48.8 1685.28,-48.8 1685.28,-84.8"/>
<text text-anchor="middle" x="1621" y="-62.6" font-family="Times,serif" font-size="14.00">AppRoutingModule</text>
</g>
<!-- AppRoutingModule&#45;&gt;AppModule -->
<g id="edge11" class="edge">
<title>AppRoutingModule&#45;&gt;AppModule</title>
<path fill="none" stroke="black" d="M1621,-85.05C1621,-107.82 1621,-143.8 1621,-143.8 1621,-143.8 933.85,-143.8 933.85,-143.8"/>
<polygon fill="black" stroke="black" points="933.85,-140.3 923.85,-143.8 933.85,-147.3 933.85,-140.3"/>
</g>
</g>
</svg>
