<?xml version="1.0" encoding="UTF-8" standalone="no"?>
<!DOCTYPE svg PUBLIC "-//W3C//DTD SVG 1.1//EN"
 "http://www.w3.org/Graphics/SVG/1.1/DTD/svg11.dtd">
<!-- Generated by graphviz version 3.0.0 (20220226.1711)
 -->
<!-- Title: dependencies Pages: 1 -->
<svg width="1717pt" height="247pt"
 viewBox="0.00 0.00 1717.00 246.80" xmlns="http://www.w3.org/2000/svg" xmlns:xlink="http://www.w3.org/1999/xlink">
<g id="graph0" class="graph" transform="scale(1 1) rotate(0) translate(4 242.8)">
<title>dependencies</title>
<polygon fill="white" stroke="transparent" points="-4,4 -4,-242.8 1713,-242.8 1713,4 -4,4"/>
<text text-anchor="middle" x="854.5" y="-8.2" font-family="sans-serif" font-size="14.00">dependencies</text>
<g id="clust1" class="cluster">
<title>cluster_AppModule</title>
<polygon fill="none" stroke="black" stroke-dasharray="1,5" points="8,-32.8 8,-230.8 1701,-230.8 1701,-32.8 8,-32.8"/>
</g>
<g id="clust2" class="cluster">
<title>cluster_AppModule_declarations</title>
<polygon fill="none" stroke="black" points="168,-40.8 168,-92.8 1693,-92.8 1693,-40.8 168,-40.8"/>
</g>
<g id="clust13" class="cluster">
<title>cluster_AppModule_imports</title>
<polygon fill="none" stroke="black" points="16,-40.8 16,-92.8 160,-92.8 160,-40.8 16,-40.8"/>
</g>
<g id="clust15" class="cluster">
<title>cluster_AppModule_bootstrap</title>
<polygon fill="none" stroke="black" points="801,-170.8 801,-222.8 925,-222.8 925,-170.8 801,-170.8"/>
</g>
<!-- AppComponent -->
<g id="node1" class="node">
<title>AppComponent</title>
<polygon fill="#ffffb3" stroke="black" points="1684.94,-84.8 1579.06,-84.8 1579.06,-48.8 1684.94,-48.8 1684.94,-84.8"/>
<text text-anchor="middle" x="1632" y="-62.6" font-family="Times,serif" font-size="14.00">AppComponent</text>
</g>
<!-- AppModule -->
<g id="node11" class="node">
<title>AppModule</title>
<polygon fill="#8dd3c7" stroke="black" points="904.66,-149.8 901.66,-153.8 880.66,-153.8 877.66,-149.8 821.34,-149.8 821.34,-113.8 904.66,-113.8 904.66,-149.8"/>
<text text-anchor="middle" x="863" y="-127.6" font-family="Times,serif" font-size="14.00">AppModule</text>
</g>
<!-- AppComponent&#45;&gt;AppModule -->
<g id="edge1" class="edge">
<title>AppComponent&#45;&gt;AppModule</title>
<path fill="none" stroke="black" d="M1632,-85.05C1632,-107.82 1632,-143.8 1632,-143.8 1632,-143.8 914.89,-143.8 914.89,-143.8"/>
<polygon fill="black" stroke="black" points="914.89,-140.3 904.89,-143.8 914.89,-147.3 914.89,-140.3"/>
</g>
<!-- BookshelfComponent -->
<g id="node2" class="node">
<title>BookshelfComponent</title>
<polygon fill="#ffffb3" stroke="black" points="1561.38,-84.8 1422.62,-84.8 1422.62,-48.8 1561.38,-48.8 1561.38,-84.8"/>
<text text-anchor="middle" x="1492" y="-62.6" font-family="Times,serif" font-size="14.00">BookshelfComponent</text>
</g>
<!-- BookshelfComponent&#45;&gt;AppModule -->
<g id="edge2" class="edge">
<title>BookshelfComponent&#45;&gt;AppModule</title>
<path fill="none" stroke="black" d="M1492,-85.08C1492,-106.12 1492,-137.8 1492,-137.8 1492,-137.8 914.76,-137.8 914.76,-137.8"/>
<polygon fill="black" stroke="black" points="914.76,-134.3 904.76,-137.8 914.76,-141.3 914.76,-134.3"/>
</g>
<!-- HobbiesComponent -->
<g id="node3" class="node">
<title>HobbiesComponent</title>
<polygon fill="#ffffb3" stroke="black" points="1404.99,-84.8 1277.01,-84.8 1277.01,-48.8 1404.99,-48.8 1404.99,-84.8"/>
<text text-anchor="middle" x="1341" y="-62.6" font-family="Times,serif" font-size="14.00">HobbiesComponent</text>
</g>
<!-- HobbiesComponent&#45;&gt;AppModule -->
<g id="edge3" class="edge">
<title>HobbiesComponent&#45;&gt;AppModule</title>
<path fill="none" stroke="black" d="M1341,-84.91C1341,-104.14 1341,-131.8 1341,-131.8 1341,-131.8 915,-131.8 915,-131.8"/>
<polygon fill="black" stroke="black" points="915,-128.3 905,-131.8 915,-135.3 915,-128.3"/>
</g>
<!-- HomeComponent -->
<g id="node4" class="node">
<title>HomeComponent</title>
<polygon fill="#ffffb3" stroke="black" points="1258.55,-84.8 1143.45,-84.8 1143.45,-48.8 1258.55,-48.8 1258.55,-84.8"/>
<text text-anchor="middle" x="1201" y="-62.6" font-family="Times,serif" font-size="14.00">HomeComponent</text>
</g>
<!-- HomeComponent&#45;&gt;AppModule -->
<g id="edge4" class="edge">
<title>HomeComponent&#45;&gt;AppModule</title>
<path fill="none" stroke="black" d="M1201,-84.82C1201,-102.17 1201,-125.8 1201,-125.8 1201,-125.8 914.78,-125.8 914.78,-125.8"/>
<polygon fill="black" stroke="black" points="914.78,-122.3 904.78,-125.8 914.78,-129.3 914.78,-122.3"/>
</g>
<!-- LazyImageDirectiveDirective -->
<g id="node5" class="node">
<title>LazyImageDirectiveDirective</title>
<polygon fill="#ffffb3" stroke="black" points="1125.63,-84.8 942.37,-84.8 942.37,-48.8 1125.63,-48.8 1125.63,-84.8"/>
<text text-anchor="middle" x="1034" y="-62.6" font-family="Times,serif" font-size="14.00">LazyImageDirectiveDirective</text>
</g>
<!-- LazyImageDirectiveDirective&#45;&gt;AppModule -->
<g id="edge5" class="edge">
<title>LazyImageDirectiveDirective&#45;&gt;AppModule</title>
<path fill="none" stroke="black" d="M1034,-85.04C1034,-100.37 1034,-119.8 1034,-119.8 1034,-119.8 914.83,-119.8 914.83,-119.8"/>
<polygon fill="black" stroke="black" points="914.83,-116.3 904.83,-119.8 914.83,-123.3 914.83,-116.3"/>
</g>
<!-- NavbarComponent -->
<g id="node6" class="node">
<title>NavbarComponent</title>
<polygon fill="#ffffb3" stroke="black" points="924.03,-84.8 801.97,-84.8 801.97,-48.8 924.03,-48.8 924.03,-84.8"/>
<text text-anchor="middle" x="863" y="-62.6" font-family="Times,serif" font-size="14.00">NavbarComponent</text>
</g>
<!-- NavbarComponent&#45;&gt;AppModule -->
<g id="edge6" class="edge">
<title>NavbarComponent&#45;&gt;AppModule</title>
<path fill="none" stroke="black" d="M863,-84.91C863,-84.91 863,-103.79 863,-103.79"/>
<polygon fill="black" stroke="black" points="859.5,-103.79 863,-113.79 866.5,-103.79 859.5,-103.79"/>
</g>
<!-- PageNotFoundComponent -->
<g id="node7" class="node">
<title>PageNotFoundComponent</title>
<polygon fill="#ffffb3" stroke="black" points="783.83,-84.8 618.17,-84.8 618.17,-48.8 783.83,-48.8 783.83,-84.8"/>
<text text-anchor="middle" x="701" y="-62.6" font-family="Times,serif" font-size="14.00">PageNotFoundComponent</text>
</g>
<!-- PageNotFoundComponent&#45;&gt;AppModule -->
<g id="edge7" class="edge">
<title>PageNotFoundComponent&#45;&gt;AppModule</title>
<path fill="none" stroke="black" d="M701,-85.04C701,-100.37 701,-119.8 701,-119.8 701,-119.8 811.28,-119.8 811.28,-119.8"/>
<polygon fill="black" stroke="black" points="811.28,-123.3 821.28,-119.8 811.28,-116.3 811.28,-123.3"/>
</g>
<!-- PortfolioComponent -->
<g id="node8" class="node">
<title>PortfolioComponent</title>
<polygon fill="#ffffb3" stroke="black" points="600.61,-84.8 469.39,-84.8 469.39,-48.8 600.61,-48.8 600.61,-84.8"/>
<text text-anchor="middle" x="535" y="-62.6" font-family="Times,serif" font-size="14.00">PortfolioComponent</text>
</g>
<!-- PortfolioComponent&#45;&gt;AppModule -->
<g id="edge8" class="edge">
<title>PortfolioComponent&#45;&gt;AppModule</title>
<path fill="none" stroke="black" d="M535,-84.82C535,-102.17 535,-125.8 535,-125.8 535,-125.8 811.13,-125.8 811.13,-125.8"/>
<polygon fill="black" stroke="black" points="811.13,-129.3 821.13,-125.8 811.13,-122.3 811.13,-129.3"/>
</g>
<!-- SitemapComponent -->
<g id="node9" class="node">
<title>SitemapComponent</title>
<polygon fill="#ffffb3" stroke="black" points="451.71,-84.8 324.29,-84.8 324.29,-48.8 451.71,-48.8 451.71,-84.8"/>
<text text-anchor="middle" x="388" y="-62.6" font-family="Times,serif" font-size="14.00">SitemapComponent</text>
</g>
<!-- SitemapComponent&#45;&gt;AppModule -->
<g id="edge9" class="edge">
<title>SitemapComponent&#45;&gt;AppModule</title>
<path fill="none" stroke="black" d="M388,-84.91C388,-104.14 388,-131.8 388,-131.8 388,-131.8 811.26,-131.8 811.26,-131.8"/>
<polygon fill="black" stroke="black" points="811.26,-135.3 821.26,-131.8 811.26,-128.3 811.26,-135.3"/>
</g>
<!-- WritingsComponent -->
<g id="node10" class="node">
<title>WritingsComponent</title>
<polygon fill="#ffffb3" stroke="black" points="306.32,-84.8 175.68,-84.8 175.68,-48.8 306.32,-48.8 306.32,-84.8"/>
<text text-anchor="middle" x="241" y="-62.6" font-family="Times,serif" font-size="14.00">WritingsComponent</text>
</g>
<!-- WritingsComponent&#45;&gt;AppModule -->
<g id="edge10" class="edge">
<title>WritingsComponent&#45;&gt;AppModule</title>
<path fill="none" stroke="black" d="M241,-85.08C241,-106.12 241,-137.8 241,-137.8 241,-137.8 811.22,-137.8 811.22,-137.8"/>
<polygon fill="black" stroke="black" points="811.22,-141.3 821.22,-137.8 811.22,-134.3 811.22,-141.3"/>
</g>
<!-- AppComponent  -->
<g id="node13" class="node">
<title>AppComponent </title>
<polygon fill="#80b1d3" stroke="black" points="917.44,-214.8 808.56,-214.8 808.56,-178.8 917.44,-178.8 917.44,-214.8"/>
<text text-anchor="middle" x="863" y="-192.6" font-family="Times,serif" font-size="14.00">AppComponent </text>
</g>
<!-- AppModule&#45;&gt;AppComponent  -->
<g id="edge12" class="edge">
<title>AppModule&#45;&gt;AppComponent </title>
<path fill="none" stroke="black" stroke-dasharray="1,5" d="M863,-149.91C863,-149.91 863,-168.79 863,-168.79"/>
<polygon fill="black" stroke="black" points="859.5,-168.79 863,-178.79 866.5,-168.79 859.5,-168.79"/>
</g>
<!-- AppRoutingModule -->
<g id="node12" class="node">
<title>AppRoutingModule</title>
<polygon fill="#8dd3c7" stroke="black" points="152.28,-84.8 149.28,-88.8 128.28,-88.8 125.28,-84.8 23.72,-84.8 23.72,-48.8 152.28,-48.8 152.28,-84.8"/>
<text text-anchor="middle" x="88" y="-62.6" font-family="Times,serif" font-size="14.00">AppRoutingModule</text>
</g>
<!-- AppRoutingModule&#45;&gt;AppModule -->
<g id="edge11" class="edge">
<title>AppRoutingModule&#45;&gt;AppModule</title>
<path fill="none" stroke="black" d="M88,-85.05C88,-107.82 88,-143.8 88,-143.8 88,-143.8 811.33,-143.8 811.33,-143.8"/>
<polygon fill="black" stroke="black" points="811.33,-147.3 821.33,-143.8 811.33,-140.3 811.33,-147.3"/>
</g>
</g>
</svg>
